<?xml version="1.0" encoding="utf-8"?>
<!-- Generator: Adobe Illustrator 24.1.1, SVG Export Plug-In . SVG Version: 6.00 Build 0)  -->
<svg version="1.1" id="Layer_1" xmlns="http://www.w3.org/2000/svg" xmlns:xlink="http://www.w3.org/1999/xlink" x="0px" y="0px"
	 viewBox="0 0 52.93 52.93" style="enable-background:new 0 0 52.93 52.93;" xml:space="preserve">
<path d="M44.39,51.46L1.46,8.54c-1.95-1.95-1.95-5.12,0-7.07l0,0c1.95-1.95,5.12-1.95,7.07,0l42.93,42.93
	c1.95,1.95,1.95,5.12,0,7.07l0,0C49.51,53.42,46.35,53.42,44.39,51.46z"/>
<path d="M1.46,51.46L1.46,51.46c-1.95-1.95-1.95-5.12,0-7.07L44.39,1.46c1.95-1.95,5.12-1.95,7.07,0l0,0c1.95,1.95,1.95,5.12,0,7.07
	L8.54,51.46C6.58,53.42,3.42,53.42,1.46,51.46z"/>
</svg>
